<svg width="70" height="36" viewBox="0 0 70 36" fill="none" xmlns="http://www.w3.org/2000/svg">
<g filter="url(#filter0_ii_3408_403)">
<rect width="70" height="36" rx="18" fill="#F3F3F4"/>
<path d="M33.75 23.7813L28.25 18.5313C28.0937 18.375 28 18.1875 28 17.9688C28 17.7813 28.0937 17.5938 28.25 17.4375L33.75 12.1875C34.0312 11.9063 34.5312 11.9063 34.8125 12.2188C35.0937 12.5 35.0937 13 34.7812 13.2813L30.625 17.2188L41.25 17.2188C41.6875 17.2188 42 17.5625 42 17.9688C42 18.4062 41.6875 18.7188 41.25 18.7188L30.625 18.7188L34.7812 22.6875C35.0937 22.9688 35.0937 23.4688 34.8125 23.75C34.5312 24.0625 34.0625 24.0625 33.75 23.7813Z" fill="#6E757C"/>
</g>
<defs>
<filter id="filter0_ii_3408_403" x="-1" y="-1" width="72" height="38" filterUnits="userSpaceOnUse" color-interpolation-filters="sRGB">
<feFlood flood-opacity="0" result="BackgroundImageFix"/>
<feBlend mode="normal" in="SourceGraphic" in2="BackgroundImageFix" result="shape"/>
<feColorMatrix in="SourceAlpha" type="matrix" values="0 0 0 0 0 0 0 0 0 0 0 0 0 0 0 0 0 0 127 0" result="hardAlpha"/>
<feOffset dx="-1" dy="1"/>
<feGaussianBlur stdDeviation="0.5"/>
<feComposite in2="hardAlpha" operator="arithmetic" k2="-1" k3="1"/>
<feColorMatrix type="matrix" values="0 0 0 0 1 0 0 0 0 1 0 0 0 0 1 0 0 0 0.5 0"/>
<feBlend mode="normal" in2="shape" result="effect1_innerShadow_3408_403"/>
<feColorMatrix in="SourceAlpha" type="matrix" values="0 0 0 0 0 0 0 0 0 0 0 0 0 0 0 0 0 0 127 0" result="hardAlpha"/>
<feOffset dx="1" dy="-1"/>
<feGaussianBlur stdDeviation="0.5"/>
<feComposite in2="hardAlpha" operator="arithmetic" k2="-1" k3="1"/>
<feColorMatrix type="matrix" values="0 0 0 0 0 0 0 0 0 0 0 0 0 0 0 0 0 0 0.46 0"/>
<feBlend mode="normal" in2="effect1_innerShadow_3408_403" result="effect2_innerShadow_3408_403"/>
</filter>
</defs>
</svg>
